<?xml version="1.0" encoding="UTF-8"?>
<svg xmlns="http://www.w3.org/2000/svg" width="px" height="px" viewBox="0 0 18 18" version="1.1">
    <g id="surface1">
        <path style=" stroke:none;fill-rule:nonzero;fill:rgb(0%,0%,0%);fill-opacity:1;"
            d="M 15 9.5625 C 15.3125 9.5625 15.5625 9.3125 15.5625 9 C 15.5625 8.6875 15.3125 8.4375 15 8.4375 Z M 3 8.4375 C 2.6875 8.4375 2.4375 8.6875 2.4375 9 C 2.4375 9.3125 2.6875 9.5625 3 9.5625 Z M 5.605469 13.148438 C 5.824219 13.367188 6.179688 13.367188 6.398438 13.144531 C 6.617188 12.925781 6.617188 12.570312 6.394531 12.351562 Z M 4.679688 11.441406 L 5.074219 11.039062 Z M 4.679688 6.558594 L 4.28125 6.160156 Z M 6.394531 5.648438 C 6.617188 5.429688 6.617188 5.074219 6.398438 4.855469 C 6.179688 4.632812 5.824219 4.632812 5.605469 4.851562 Z M 3.015625 9.234375 L 2.457031 9.304688 Z M 3.015625 8.765625 L 2.457031 8.695312 Z M 15 8.4375 L 3 8.4375 L 3 9.5625 L 15 9.5625 Z M 6.394531 12.351562 L 5.074219 11.039062 L 4.28125 11.839844 L 5.605469 13.148438 Z M 5.074219 6.960938 L 6.394531 5.648438 L 5.605469 4.851562 L 4.28125 6.160156 Z M 5.074219 11.039062 C 4.539062 10.507812 4.167969 10.140625 3.921875 9.832031 C 3.679688 9.53125 3.59375 9.335938 3.574219 9.164062 L 2.457031 9.304688 C 2.515625 9.769531 2.738281 10.15625 3.042969 10.535156 C 3.339844 10.90625 3.765625 11.324219 4.28125 11.839844 Z M 4.28125 6.160156 C 3.765625 6.675781 3.339844 7.09375 3.042969 7.464844 C 2.738281 7.84375 2.515625 8.230469 2.457031 8.695312 L 3.574219 8.835938 C 3.59375 8.664062 3.679688 8.46875 3.921875 8.167969 C 4.167969 7.859375 4.539062 7.492188 5.074219 6.960938 Z M 3.574219 9.164062 C 3.558594 9.054688 3.558594 8.945312 3.574219 8.835938 L 2.457031 8.695312 C 2.429688 8.898438 2.429688 9.101562 2.457031 9.304688 Z M 3.574219 9.164062 " />
    </g>
</svg>
