<svg xmlns="http://www.w3.org/2000/svg" enable-background="new 0 0 24 24" viewBox="0 0 24 24">
    <path
        d="M17.5,11.5H7.7069702l4.6465454-4.6464844c0.1972046-0.1932373,0.2003784-0.5097656,0.0071411-0.7069702c-0.1932983-0.1972046-0.5098267-0.2004395-0.7070312-0.0071411c-0.0023804,0.0023193-0.0047607,0.0046997-0.0071411,0.0071411l-5.5,5.5c-0.1953125,0.1950684-0.1956177,0.5113525-0.0005493,0.706665c0.0001221,0.0001831,0.0002441,0.0003052,0.0005493,0.0003052l5.5,5.5c0.1972046,0.1932373,0.5137329,0.1900635,0.7069702-0.0071411c0.1905518-0.194397,0.1905518-0.5054932,0-0.6998901L7.7069702,12.5H17.5c0.276123,0,0.5-0.223877,0.5-0.5S17.776123,11.5,17.5,11.5z"
        fill="#dd855f" class="color000000 svgShape"></path>
</svg>