<?xml version="1.0" encoding="UTF-8"?>
<svg xmlns="http://www.w3.org/2000/svg" width="px" height="px" viewBox="0 0 15 15" version="1.1">
    <g id="surface1">
        <path
            style=" stroke:none;fill-rule:evenodd;fill:rgb(48.627451%,52.941176%,53.333333%);fill-opacity:1;"
            d="M 5.625 0.78125 C 5.882812 0.78125 6.09375 0.992188 6.09375 1.25 L 6.09375 2.039062 C 6.511719 2.03125 6.976562 2.03125 7.492188 2.03125 L 7.507812 2.03125 C 8.023438 2.03125 8.488281 2.03125 8.90625 2.039062 L 8.90625 1.25 C 8.90625 0.992188 9.117188 0.78125 9.375 0.78125 C 9.632812 0.78125 9.84375 0.992188 9.84375 1.25 L 9.84375 2.070312 C 10.789062 2.128906 11.515625 2.28125 12.113281 2.71875 C 12.417969 2.9375 12.6875 3.207031 12.90625 3.511719 C 13.273438 4.015625 13.4375 4.605469 13.515625 5.335938 C 13.59375 6.046875 13.59375 6.949219 13.59375 8.097656 L 13.59375 8.132812 C 13.59375 8.855469 13.59375 9.480469 13.574219 10.015625 C 13.535156 11.1875 13.410156 12.046875 12.90625 12.738281 C 12.6875 13.042969 12.417969 13.308594 12.113281 13.53125 C 11.421875 14.03125 10.5625 14.160156 9.390625 14.199219 C 8.855469 14.21875 8.230469 14.21875 7.507812 14.21875 L 7.472656 14.21875 C 6.324219 14.21875 5.425781 14.21875 4.710938 14.140625 C 3.980469 14.0625 3.390625 13.898438 2.886719 13.53125 C 2.582031 13.308594 2.3125 13.042969 2.09375 12.738281 C 1.726562 12.234375 1.5625 11.644531 1.484375 10.914062 C 1.40625 10.199219 1.40625 9.300781 1.40625 8.152344 L 1.40625 8.097656 C 1.40625 6.949219 1.40625 6.046875 1.484375 5.335938 C 1.5625 4.605469 1.726562 4.015625 2.09375 3.511719 C 2.3125 3.207031 2.582031 2.9375 2.886719 2.71875 C 3.484375 2.28125 4.210938 2.128906 5.15625 2.070312 L 5.15625 1.25 C 5.15625 0.992188 5.367188 0.78125 5.625 0.78125 Z M 5.15625 3.011719 C 4.304688 3.070312 3.8125 3.203125 3.4375 3.476562 C 3.214844 3.640625 3.015625 3.835938 2.851562 4.0625 C 2.621094 4.378906 2.484375 4.785156 2.414062 5.4375 C 2.34375 6.09375 2.34375 6.941406 2.34375 8.125 C 2.34375 9.308594 2.34375 10.15625 2.414062 10.8125 C 2.484375 11.460938 2.621094 11.867188 2.851562 12.1875 C 3.015625 12.410156 3.214844 12.609375 3.4375 12.773438 C 3.757812 13.003906 4.164062 13.136719 4.8125 13.207031 C 5.46875 13.28125 6.316406 13.28125 7.5 13.28125 C 8.03125 13.28125 8.496094 13.28125 8.90625 13.273438 C 8.910156 12.976562 8.917969 12.757812 8.949219 12.5625 C 9.195312 11.023438 10.398438 9.820312 11.9375 9.574219 C 12.132812 9.542969 12.351562 9.535156 12.648438 9.53125 C 12.65625 9.121094 12.65625 8.65625 12.65625 8.125 C 12.65625 6.941406 12.65625 6.09375 12.585938 5.4375 C 12.515625 4.785156 12.378906 4.378906 12.148438 4.0625 C 11.984375 3.835938 11.785156 3.640625 11.5625 3.476562 C 11.1875 3.203125 10.695312 3.070312 9.84375 3.011719 L 9.84375 3.125 C 9.84375 3.382812 9.632812 3.59375 9.375 3.59375 C 9.117188 3.59375 8.90625 3.382812 8.90625 3.125 L 8.90625 2.976562 C 8.492188 2.96875 8.03125 2.96875 7.5 2.96875 C 6.96875 2.96875 6.507812 2.96875 6.09375 2.976562 L 6.09375 3.125 C 6.09375 3.382812 5.882812 3.59375 5.625 3.59375 C 5.367188 3.59375 5.15625 3.382812 5.15625 3.125 Z M 12.613281 10.46875 C 12.359375 10.472656 12.210938 10.480469 12.085938 10.5 C 10.949219 10.679688 10.054688 11.574219 9.875 12.707031 C 9.855469 12.835938 9.847656 12.984375 9.84375 13.238281 C 10.695312 13.179688 11.1875 13.046875 11.5625 12.773438 C 11.785156 12.609375 11.984375 12.410156 12.148438 12.1875 C 12.421875 11.8125 12.554688 11.320312 12.613281 10.46875 Z M 12.613281 10.46875 " />
        <path
            style=" stroke:none;fill-rule:nonzero;fill:rgb(48.627451%,52.941176%,53.333333%);fill-opacity:1;"
            d="M 5 5.625 C 5 5.96875 4.71875 6.25 4.375 6.25 C 4.03125 6.25 3.75 5.96875 3.75 5.625 C 3.75 5.28125 4.03125 5 4.375 5 C 4.71875 5 5 5.28125 5 5.625 Z M 5 5.625 " />
        <path
            style=" stroke:none;fill-rule:nonzero;fill:rgb(48.627451%,52.941176%,53.333333%);fill-opacity:1;"
            d="M 5 8.125 C 5 8.46875 4.71875 8.75 4.375 8.75 C 4.03125 8.75 3.75 8.46875 3.75 8.125 C 3.75 7.78125 4.03125 7.5 4.375 7.5 C 4.71875 7.5 5 7.78125 5 8.125 Z M 5 8.125 " />
        <path
            style=" stroke:none;fill-rule:nonzero;fill:rgb(48.627451%,52.941176%,53.333333%);fill-opacity:1;"
            d="M 8.125 5.625 C 8.125 5.96875 7.84375 6.25 7.5 6.25 C 7.15625 6.25 6.875 5.96875 6.875 5.625 C 6.875 5.28125 7.15625 5 7.5 5 C 7.84375 5 8.125 5.28125 8.125 5.625 Z M 8.125 5.625 " />
        <path
            style=" stroke:none;fill-rule:nonzero;fill:rgb(48.627451%,52.941176%,53.333333%);fill-opacity:1;"
            d="M 8.125 8.125 C 8.125 8.46875 7.84375 8.75 7.5 8.75 C 7.15625 8.75 6.875 8.46875 6.875 8.125 C 6.875 7.78125 7.15625 7.5 7.5 7.5 C 7.84375 7.5 8.125 7.78125 8.125 8.125 Z M 8.125 8.125 " />
        <path
            style=" stroke:none;fill-rule:nonzero;fill:rgb(48.627451%,52.941176%,53.333333%);fill-opacity:1;"
            d="M 8.125 10.625 C 8.125 10.96875 7.84375 11.25 7.5 11.25 C 7.15625 11.25 6.875 10.96875 6.875 10.625 C 6.875 10.28125 7.15625 10 7.5 10 C 7.84375 10 8.125 10.28125 8.125 10.625 Z M 8.125 10.625 " />
        <path
            style=" stroke:none;fill-rule:nonzero;fill:rgb(48.627451%,52.941176%,53.333333%);fill-opacity:1;"
            d="M 11.25 5.625 C 11.25 5.96875 10.96875 6.25 10.625 6.25 C 10.28125 6.25 10 5.96875 10 5.625 C 10 5.28125 10.28125 5 10.625 5 C 10.96875 5 11.25 5.28125 11.25 5.625 Z M 11.25 5.625 " />
        <path
            style=" stroke:none;fill-rule:nonzero;fill:rgb(48.627451%,52.941176%,53.333333%);fill-opacity:1;"
            d="M 11.25 8.125 C 11.25 8.46875 10.96875 8.75 10.625 8.75 C 10.28125 8.75 10 8.46875 10 8.125 C 10 7.78125 10.28125 7.5 10.625 7.5 C 10.96875 7.5 11.25 7.78125 11.25 8.125 Z M 11.25 8.125 " />
        <path
            style=" stroke:none;fill-rule:nonzero;fill:rgb(48.627451%,52.941176%,53.333333%);fill-opacity:1;"
            d="M 5 10.625 C 5 10.96875 4.71875 11.25 4.375 11.25 C 4.03125 11.25 3.75 10.96875 3.75 10.625 C 3.75 10.28125 4.03125 10 4.375 10 C 4.71875 10 5 10.28125 5 10.625 Z M 5 10.625 " />
    </g>
</svg>
