<svg width="20" height="20" viewBox="0 0 20 20" fill="none" xmlns="http://www.w3.org/2000/svg">
<path fill-rule="evenodd" clip-rule="evenodd" d="M7.5 1.04102C7.84518 1.04102 8.125 1.32084 8.125 1.66602V2.71652C8.6827 2.70768 9.30236 2.70768 9.99079 2.70768H10.0092C10.6976 2.70768 11.3173 2.70768 11.875 2.71652V1.66602C11.875 1.32084 12.1548 1.04102 12.5 1.04102C12.8452 1.04102 13.125 1.32084 13.125 1.66602V2.76067C14.3849 2.83965 15.3529 3.0438 16.1498 3.62281C16.5566 3.91836 16.9143 4.27609 17.2099 4.68288C17.6981 5.35481 17.9167 6.1418 18.0219 7.11308C18.125 8.06486 18.125 9.26452 18.125 10.795V10.8422C18.125 11.8088 18.125 12.6398 18.1005 13.3541C18.047 14.9153 17.8781 16.0628 17.2099 16.9825C16.9143 17.3893 16.5566 17.747 16.1498 18.0426C15.2301 18.7108 14.0826 18.8797 12.5214 18.9332C11.807 18.9577 10.9758 18.9577 10.009 18.9577H9.96227C8.43184 18.9577 7.23217 18.9577 6.2804 18.8546C5.30912 18.7493 4.52213 18.5307 3.8502 18.0426C3.44341 17.747 3.08568 17.3893 2.79013 16.9825C2.30194 16.3106 2.08334 15.5236 1.97811 14.5523C1.87499 13.6005 1.87499 12.4008 1.875 10.8704V10.795C1.87499 9.26453 1.87499 8.06486 1.97811 7.11308C2.08334 6.1418 2.30194 5.35481 2.79013 4.68288C3.08568 4.27609 3.44341 3.91836 3.8502 3.62281C4.64713 3.0438 5.61507 2.83965 6.875 2.76067V1.66602C6.875 1.32084 7.15482 1.04102 7.5 1.04102ZM6.875 4.01372C5.73996 4.09178 5.08481 4.27089 4.58493 4.63408C4.28426 4.85253 4.01985 5.11694 3.8014 5.41761C3.49383 5.84095 3.31454 6.38279 3.22083 7.24772C3.12586 8.12434 3.125 9.25637 3.125 10.8327C3.125 12.409 3.12586 13.541 3.22083 14.4176C3.31454 15.2826 3.49383 15.8244 3.8014 16.2478C4.01985 16.5484 4.28426 16.8128 4.58493 17.0313C5.00826 17.3389 5.55011 17.5181 6.41504 17.6118C7.29166 17.7068 8.42369 17.7077 10 17.7077C10.707 17.7077 11.3265 17.7076 11.8765 17.6987C11.8802 17.3031 11.8925 17.0119 11.934 16.7498C12.2587 14.6994 13.8668 13.0914 15.9171 12.7667C16.1793 12.7252 16.4704 12.7128 16.866 12.7092C16.875 12.1592 16.875 11.5396 16.875 10.8327C16.875 9.25637 16.8741 8.12434 16.7792 7.24772C16.6855 6.38279 16.5062 5.84095 16.1986 5.41761C15.9802 5.11694 15.7157 4.85253 15.4151 4.63408C14.9152 4.27089 14.26 4.09178 13.125 4.01372V4.16602C13.125 4.51119 12.8452 4.79102 12.5 4.79102C12.1548 4.79102 11.875 4.51119 11.875 4.16602V3.96667C11.3253 3.95772 10.7063 3.95768 10 3.95768C9.29369 3.95768 8.67466 3.95772 8.125 3.96667V4.16602C8.125 4.51119 7.84518 4.79102 7.5 4.79102C7.15482 4.79102 6.875 4.51119 6.875 4.16602V4.01372ZM16.8188 13.96C16.4813 13.9639 16.2835 13.9742 16.1126 14.0013C14.5972 14.2413 13.4086 15.4299 13.1686 16.9453C13.1415 17.1162 13.1312 17.314 13.1273 17.6515C14.2609 17.5733 14.9155 17.3942 15.4151 17.0313C15.7157 16.8128 15.9802 16.5484 16.1986 16.2478C16.5615 15.7482 16.7407 15.0936 16.8188 13.96Z" fill="#7C8788"/>
<path d="M6.66667 7.49935C6.66667 7.95959 6.29357 8.33268 5.83333 8.33268C5.3731 8.33268 5 7.95959 5 7.49935C5 7.03911 5.3731 6.66602 5.83333 6.66602C6.29357 6.66602 6.66667 7.03911 6.66667 7.49935Z" fill="#7C8788"/>
<path d="M6.66667 10.8327C6.66667 11.2929 6.29357 11.666 5.83333 11.666C5.3731 11.666 5 11.2929 5 10.8327C5 10.3724 5.3731 9.99935 5.83333 9.99935C6.29357 9.99935 6.66667 10.3724 6.66667 10.8327Z" fill="#7C8788"/>
<path d="M10.8333 7.49935C10.8333 7.95959 10.4602 8.33268 10 8.33268C9.53976 8.33268 9.16667 7.95959 9.16667 7.49935C9.16667 7.03911 9.53976 6.66602 10 6.66602C10.4602 6.66602 10.8333 7.03911 10.8333 7.49935Z" fill="#7C8788"/>
<path d="M10.8333 10.8327C10.8333 11.2929 10.4602 11.666 10 11.666C9.53976 11.666 9.16667 11.2929 9.16667 10.8327C9.16667 10.3724 9.53976 9.99935 10 9.99935C10.4602 9.99935 10.8333 10.3724 10.8333 10.8327Z" fill="#7C8788"/>
<path d="M10.8333 14.166C10.8333 14.6263 10.4602 14.9993 10 14.9993C9.53976 14.9993 9.16667 14.6263 9.16667 14.166C9.16667 13.7058 9.53976 13.3327 10 13.3327C10.4602 13.3327 10.8333 13.7058 10.8333 14.166Z" fill="#7C8788"/>
<path d="M15 7.49935C15 7.95959 14.6269 8.33268 14.1667 8.33268C13.7064 8.33268 13.3333 7.95959 13.3333 7.49935C13.3333 7.03911 13.7064 6.66602 14.1667 6.66602C14.6269 6.66602 15 7.03911 15 7.49935Z" fill="#7C8788"/>
<path d="M15 10.8327C15 11.2929 14.6269 11.666 14.1667 11.666C13.7064 11.666 13.3333 11.2929 13.3333 10.8327C13.3333 10.3724 13.7064 9.99935 14.1667 9.99935C14.6269 9.99935 15 10.3724 15 10.8327Z" fill="#7C8788"/>
<path d="M6.66667 14.166C6.66667 14.6263 6.29357 14.9993 5.83333 14.9993C5.3731 14.9993 5 14.6263 5 14.166C5 13.7058 5.3731 13.3327 5.83333 13.3327C6.29357 13.3327 6.66667 13.7058 6.66667 14.166Z" fill="#7C8788"/>
</svg>
