<svg width="20" height="20" viewBox="0 0 20 20" fill="none" xmlns="http://www.w3.org/2000/svg">
<path fill-rule="evenodd" clip-rule="evenodd" d="M10.0002 5.20898C8.27427 5.20898 6.87516 6.60809 6.87516 8.33398C6.87516 10.0599 8.27427 11.459 10.0002 11.459C11.7261 11.459 13.1252 10.0599 13.1252 8.33398C13.1252 6.60809 11.7261 5.20898 10.0002 5.20898ZM8.12516 8.33398C8.12516 7.29845 8.96463 6.45898 10.0002 6.45898C11.0357 6.45898 11.8752 7.29845 11.8752 8.33398C11.8752 9.36952 11.0357 10.209 10.0002 10.209C8.96463 10.209 8.12516 9.36952 8.12516 8.33398Z" fill="white"/>
<path fill-rule="evenodd" clip-rule="evenodd" d="M10.0002 0.208984C5.93071 0.208984 2.7085 3.74463 2.7085 8.0079C2.7085 9.37517 3.38775 10.9852 4.24236 12.4961C5.11081 14.0314 6.21923 15.5642 7.19102 16.8034L7.22344 16.8447C7.69778 17.4497 8.10186 17.965 8.4937 18.321C8.9212 18.7093 9.39261 18.9635 10.0002 18.9635C10.6077 18.9635 11.0791 18.7093 11.5066 18.321C11.8985 17.965 12.3026 17.4497 12.7769 16.8447L12.8093 16.8034C13.7811 15.5642 14.8895 14.0314 15.758 12.4961C16.6126 10.9852 17.2918 9.37517 17.2918 8.0079C17.2918 3.74463 14.0696 0.208984 10.0002 0.208984ZM3.9585 8.0079C3.9585 4.34708 6.70581 1.45898 10.0002 1.45898C13.2945 1.45898 16.0418 4.34708 16.0418 8.0079C16.0418 9.02998 15.5088 10.3976 14.67 11.8807C13.8449 13.3393 12.7787 14.8168 11.8257 16.032C11.3099 16.6898 10.9703 17.1195 10.6661 17.3957C10.3888 17.6477 10.2036 17.7135 10.0002 17.7135C9.79668 17.7135 9.61154 17.6477 9.33418 17.3957C9.03006 17.1195 8.69045 16.6898 8.17465 16.032C7.22165 14.8168 6.1554 13.3393 5.33037 11.8807C4.49151 10.3976 3.9585 9.02998 3.9585 8.0079Z" fill="white"/>
</svg>
