<?xml version="1.0" encoding="UTF-8"?>
<svg xmlns="http://www.w3.org/2000/svg" width="px" height="px" viewBox="0 0 15 15" version="1.1">
    <g id="surface1">
        <path style=" stroke:none;fill-rule:evenodd;fill:rgb(100%,100%,100%);fill-opacity:1;"
            d="M 7.5 3.90625 C 6.207031 3.90625 5.15625 4.957031 5.15625 6.25 C 5.15625 7.546875 6.207031 8.59375 7.5 8.59375 C 8.792969 8.59375 9.84375 7.546875 9.84375 6.25 C 9.84375 4.957031 8.792969 3.90625 7.5 3.90625 Z M 6.09375 6.25 C 6.09375 5.472656 6.722656 4.84375 7.5 4.84375 C 8.277344 4.84375 8.90625 5.472656 8.90625 6.25 C 8.90625 7.027344 8.277344 7.65625 7.5 7.65625 C 6.722656 7.65625 6.09375 7.027344 6.09375 6.25 Z M 6.09375 6.25 " />
        <path style=" stroke:none;fill-rule:evenodd;fill:rgb(100%,100%,100%);fill-opacity:1;"
            d="M 7.5 0.15625 C 4.449219 0.15625 2.03125 2.808594 2.03125 6.007812 C 2.03125 7.03125 2.539062 8.238281 3.183594 9.371094 C 3.832031 10.523438 4.664062 11.671875 5.394531 12.601562 L 5.417969 12.632812 C 5.773438 13.085938 6.078125 13.472656 6.371094 13.742188 C 6.691406 14.03125 7.042969 14.222656 7.5 14.222656 C 7.957031 14.222656 8.308594 14.03125 8.628906 13.742188 C 8.925781 13.472656 9.226562 13.085938 9.582031 12.632812 L 9.605469 12.601562 C 10.335938 11.671875 11.167969 10.523438 11.820312 9.371094 C 12.460938 8.238281 12.96875 7.03125 12.96875 6.007812 C 12.96875 2.808594 10.550781 0.15625 7.5 0.15625 Z M 2.96875 6.007812 C 2.96875 3.261719 5.03125 1.09375 7.5 1.09375 C 9.972656 1.09375 12.03125 3.261719 12.03125 6.007812 C 12.03125 6.773438 11.632812 7.796875 11.003906 8.910156 C 10.382812 10.003906 9.585938 11.113281 8.871094 12.023438 C 8.484375 12.515625 8.226562 12.839844 8 13.046875 C 7.792969 13.234375 7.652344 13.285156 7.5 13.285156 C 7.347656 13.285156 7.207031 13.234375 7 13.046875 C 6.773438 12.839844 6.519531 12.515625 6.132812 12.023438 C 5.417969 11.113281 4.617188 10.003906 3.996094 8.910156 C 3.367188 7.796875 2.96875 6.773438 2.96875 6.007812 Z M 2.96875 6.007812 " />
    </g>
</svg>
